<svg version="1.1" viewBox="0 0 1024 1024" xmlns="http://www.w3.org/2000/svg">
    <g fill="#304060">
        <path d="m227.26 4.0114c-78.06 0-141.89 63.834-141.89 141.89v739.48c0 74.091 60.612 134.7 134.7 134.62h685.08c18.44 0 33.489-15.049 33.489-33.489v-101.22h-58.545v79.634h-662.9c-41.178 0-74.838-33.657-74.838-74.838 0-41.178 33.657-74.838 74.838-74.838h662.9c29.768 1.323 57.305 0.8324 58.545-20.501v-763.38a27.453 27.453 0 0 0-27.369-27.369zm26.377 110.8h23.648c12.073 0 21.996 8.0215 21.996 17.779v557.9c0 9.7575-9.923 17.779-21.996 17.779h-23.648c-12.073 0-21.996-8.0215-21.996-17.779v-557.9c0.0827-9.8398 9.923-17.779 21.996-17.779zm213.3 95.224a45.065 45.065 0 0 1 45.062 45.069 45.065 45.065 0 0 1-45.062 45.069 45.065 45.065 0 0 1-45.069-45.069 45.065 45.065 0 0 1 45.069-45.069zm152.29 0a45.065 45.065 0 0 1 45.069 45.069 45.065 45.065 0 0 1-45.069 45.069 45.065 45.065 0 0 1-45.069-45.069 45.065 45.065 0 0 1 45.069-45.069zm152.29 0a45.065 45.065 0 0 1 45.069 45.069 45.065 45.065 0 0 1-45.069 45.069 45.065 45.065 0 0 1-45.062-45.069 45.065 45.065 0 0 1 45.062-45.069zm-304.57 152.29a45.065 45.065 0 0 1 45.062 45.062 45.065 45.065 0 0 1-45.062 45.069 45.065 45.065 0 0 1-45.069-45.069 45.065 45.065 0 0 1 45.069-45.062zm152.29 0a45.065 45.065 0 0 1 45.069 45.062 45.065 45.065 0 0 1-45.069 45.069 45.065 45.065 0 0 1-45.069-45.069 45.065 45.065 0 0 1 45.069-45.062zm152.29 0a45.065 45.065 0 0 1 45.069 45.062 45.065 45.065 0 0 1-45.069 45.069 45.065 45.065 0 0 1-45.062-45.069 45.065 45.065 0 0 1 45.062-45.062zm-304.57 152.29a45.065 45.065 0 0 1 45.062 45.069 45.065 45.065 0 0 1-45.062 45.062 45.065 45.065 0 0 1-45.069-45.062 45.065 45.065 0 0 1 45.069-45.069zm152.29 0a45.065 45.065 0 0 1 45.069 45.069 45.065 45.065 0 0 1-45.069 45.062 45.065 45.065 0 0 1-45.069-45.062 45.065 45.065 0 0 1 45.069-45.069zm152.29 0a45.065 45.065 0 0 1 45.069 45.069 45.065 45.065 0 0 1-45.069 45.062 45.065 45.065 0 0 1-45.062-45.062 45.065 45.065 0 0 1 45.062-45.069z"/>
    </g>
</svg>
