<svg version="1.1" viewBox="0 0 1024 1024" xmlns="http://www.w3.org/2000/svg">
    <g fill="#304060">
        <circle cx="120" cy="120" r="116"/>
        <circle cx="512" cy="120" r="116"/>
        <circle cx="904" cy="120" r="116"/>
        <circle cx="120" cy="512" r="116"/>
        <path d="m434.58 373.88c-21.224 0-38.58 17.356-38.58 38.58v201.06c0 20.145 16.48 36.624 36.625 36.602h186.27c5.0136 0 9.1055-4.0918 9.1055-9.1055v-27.52h-15.918v21.652h-180.24c-11.196 0-20.348-9.1512-20.348-20.348 0-11.196 9.1512-20.348 20.348-20.348h180.24c8.0938 0.35972 15.581 0.22634 15.918-5.5742v-207.56a7.4643 7.4643 0 0 0-7.4414-7.4414zm7.1719 30.127h6.4297c3.2825 0 5.9805 2.181 5.9805 4.834v151.69c0 2.653-2.698 4.834-5.9805 4.834h-6.4297c-3.2825 0-5.9805-2.181-5.9805-4.834v-151.69c0.0225-2.6754 2.698-4.834 5.9805-4.834zm57.994 25.891a12.253 12.253 0 0 1 12.252 12.254 12.253 12.253 0 0 1-12.252 12.254 12.253 12.253 0 0 1-12.254-12.254 12.253 12.253 0 0 1 12.254-12.254zm41.406 0a12.253 12.253 0 0 1 12.254 12.254 12.253 12.253 0 0 1-12.254 12.254 12.253 12.253 0 0 1-12.254-12.254 12.253 12.253 0 0 1 12.254-12.254zm41.406 0a12.253 12.253 0 0 1 12.254 12.254 12.253 12.253 0 0 1-12.254 12.254 12.253 12.253 0 0 1-12.252-12.254 12.253 12.253 0 0 1 12.252-12.254zm-82.812 41.408a12.253 12.253 0 0 1 12.252 12.252 12.253 12.253 0 0 1-12.252 12.254 12.253 12.253 0 0 1-12.254-12.254 12.253 12.253 0 0 1 12.254-12.252zm41.406 0a12.253 12.253 0 0 1 12.254 12.252 12.253 12.253 0 0 1-12.254 12.254 12.253 12.253 0 0 1-12.254-12.254 12.253 12.253 0 0 1 12.254-12.252zm41.406 0a12.253 12.253 0 0 1 12.254 12.252 12.253 12.253 0 0 1-12.254 12.254 12.253 12.253 0 0 1-12.252-12.254 12.253 12.253 0 0 1 12.252-12.252zm-82.812 41.406a12.253 12.253 0 0 1 12.252 12.254 12.253 12.253 0 0 1-12.252 12.252 12.253 12.253 0 0 1-12.254-12.252 12.253 12.253 0 0 1 12.254-12.254zm41.406 0a12.253 12.253 0 0 1 12.254 12.254 12.253 12.253 0 0 1-12.254 12.252 12.253 12.253 0 0 1-12.254-12.252 12.253 12.253 0 0 1 12.254-12.254zm41.406 0a12.253 12.253 0 0 1 12.254 12.254 12.253 12.253 0 0 1-12.254 12.252 12.253 12.253 0 0 1-12.252-12.252 12.253 12.253 0 0 1 12.252-12.254z"/>
        <circle cx="904" cy="512" r="116"/>
        <circle cx="120" cy="904" r="116"/>
        <circle cx="512" cy="904" r="116"/>
        <circle cx="904" cy="904" r="116"/>
    </g>
</svg>
